HIERARCHY
ROOT Hips
{
    OFFSET 0.000000 0.000000 0.000000
    CHANNELS 6 Xposition Yposition Zposition Zrotation Xrotation Yrotation
    JOINT Spine
    {
        OFFSET -0.000000 14.517291 0.000000
        CHANNELS 3 Zrotation Xrotation Yrotation
        JOINT Spine1
        {
            OFFSET -0.000000 37.558300 0.000000
            CHANNELS 3 Zrotation Xrotation Yrotation
            JOINT Neck
            {
                OFFSET -0.000000 37.404057 3.400369
                CHANNELS 3 Zrotation Xrotation Yrotation
                JOINT Head
                {
                    OFFSET -0.000000 24.785618 -3.540803
                    CHANNELS 3 Zrotation Xrotation Yrotation
                    End Site
                    {
                        OFFSET -0.000000 35.408028 0.000000
                    }
                }
            }
            JOINT LeftShoulder
            {
                OFFSET 6.992933 33.973492 -0.192664
                CHANNELS 3 Zrotation Xrotation Yrotation
                JOINT LeftArm
                {
                    OFFSET 21.527611 0.000000 0.000000
                    CHANNELS 3 Zrotation Xrotation Yrotation
                    JOINT LeftForeArm
                    {
                        OFFSET 56.353916 0.000000 0.000000
                        CHANNELS 3 Zrotation Xrotation Yrotation
                        JOINT LeftHand
                        {
                            OFFSET 47.774071 0.000000 0.000000
                            CHANNELS 3 Zrotation Xrotation Yrotation
                            End Site
                            {
                                OFFSET 26.556021 0.000000 0.000000
                            }
                        }
                    }
                }
            }
            JOINT RightShoulder
            {
                OFFSET -7.065357 33.973492 -0.192664
                CHANNELS 3 Zrotation Xrotation Yrotation
                JOINT RightArm
                {
                    OFFSET -21.527611 0.000000 0.000000
                    CHANNELS 3 Zrotation Xrotation Yrotation
                    JOINT RightForeArm
                    {
                        OFFSET -56.353916 0.000000 0.000000
                        CHANNELS 3 Zrotation Xrotation Yrotation
                        JOINT RightHand
                        {
                            OFFSET -47.774071 0.000000 0.000000
                            CHANNELS 3 Zrotation Xrotation Yrotation
                            End Site
                            {
                                OFFSET -26.556021 0.000000 0.000000
                            }
                        }
                    }
                }
            }
        }
    }
    JOINT LeftUpLeg
    {
        OFFSET 17.704014 0.000000 0.000000
        CHANNELS 3 Zrotation Xrotation Yrotation
        JOINT LeftLeg
        {
            OFFSET -0.000000 -81.181816 0.000000
            CHANNELS 3 Zrotation Xrotation Yrotation
            JOINT LeftFoot
            {
                OFFSET -0.000000 -62.821102 0.000000
                CHANNELS 3 Zrotation Xrotation Yrotation
                JOINT LeftToeBase
                {
                    OFFSET -0.000000 -11.507608 26.556021
                    CHANNELS 3 Zrotation Xrotation Yrotation
                    End Site
                    {
                        OFFSET -0.000000 0.000000 7.081605
                    }
                }
            }
        }
    }
    JOINT RightUpLeg
    {
        OFFSET -17.704014 0.000000 0.000000
        CHANNELS 3 Zrotation Xrotation Yrotation
        JOINT RightLeg
        {
            OFFSET -0.000000 -81.181816 0.000000
            CHANNELS 3 Zrotation Xrotation Yrotation
            JOINT RightFoot
            {
                OFFSET -0.000000 -62.821102 0.000000
                CHANNELS 3 Zrotation Xrotation Yrotation
                JOINT RightToeBase
                {
                    OFFSET -0.000000 -11.507608 26.556021
                    CHANNELS 3 Zrotation Xrotation Yrotation
                    End Site
                    {
                        OFFSET -0.000000 0.000000 7.081605
                    }
                }
            }
        }
    }
}
MOTION
Frames:    8
Frame Time:    0.008333
6.965396    155.531372    -100.390816    2.814422    -6.022604    49.196262    -2.666693    1.918474    -2.845336    -3.307337    3.999468    -0.847552    5.196641    4.572354    -17.116972    12.749473    0.702371    -16.703152    6.182957    8.730298    -19.313852    -25.819344    23.235041    -58.585320    -2.110829    -10.090844    -101.162354    10.953653    -13.567781    -10.236985    -8.706956    -1.653420    -3.562133    24.133219    -24.486490    52.154652    -19.364824    -12.738295    63.646278    -3.058566    -1.719263    38.019367    18.035515    -4.739905    -10.274584    -9.843849    30.903683    -23.580582    -0.890036    -24.703743    38.703800    0.000000    0.000000    0.000000    -10.074238    -13.531212    25.976936    7.942674    27.128548    2.520343    6.160860    -17.999088    -12.620420    0.000000    0.000000    0.000000    
6.928499    155.512207    -100.293396    2.819673    -6.033483    49.299969    -2.655427    1.917878    -2.825034    -3.320637    4.004077    -0.840069    5.192062    4.583357    -17.149508    12.754738    0.696648    -16.734936    6.167607    8.673939    -19.384697    -25.902435    23.296661    -58.452747    -2.144139    -10.049685    -101.235428    10.975931    -13.565649    -10.172785    -8.703541    -1.636252    -3.621624    24.158581    -24.489838    52.190384    -19.385229    -12.729147    63.616806    -3.046783    -1.700180    38.031555    18.090067    -4.761988    -10.297755    -9.843252    30.915594    -23.616880    -0.939219    -24.721794    38.656216    0.000000    0.000000    0.000000    -10.055048    -13.521495    25.984509    7.935242    27.128210    2.539298    6.509403    -17.735561    -12.493113    0.000000    0.000000    0.000000    
6.900281    155.488007    -100.185326    2.839401    -6.039085    49.410126    -2.657784    1.915188    -2.799127    -3.336452    4.015996    -0.830534    5.199784    4.610667    -17.185986    12.758094    0.664915    -16.768803    6.193290    8.683127    -19.400389    -25.910681    23.332188    -58.454689    -2.174971    -10.030553    -101.269569    11.043912    -13.587984    -10.142976    -8.689487    -1.642428    -3.665121    24.147261    -24.497822    52.174637    -19.390478    -12.701995    63.609768    -3.081267    -1.682134    38.018425    18.135334    -4.772249    -10.336271    -9.849613    30.923887    -23.650991    -0.964897    -24.738354    38.606125    0.000000    0.000000    0.000000    -10.048573    -13.501776    26.002888    7.961644    27.137735    2.553691    6.632638    -17.473618    -12.456677    0.000000    0.000000    0.000000    
6.875721    155.459320    -100.076965    2.862400    -6.042499    49.513279    -2.665814    1.912085    -2.784850    -3.353155    4.024119    -0.824985    5.204428    4.626584    -17.203249    12.763182    0.661335    -16.785595    6.207655    8.686362    -19.408386    -26.077337    23.240536    -58.352592    -2.207378    -9.846486    -101.301689    10.689822    -13.404105    -10.017425    -8.648443    -1.687203    -3.645757    24.039421    -24.454855    52.078388    -19.390581    -12.743979    63.598766    -3.063387    -1.721507    38.014095    18.171749    -4.779906    -10.339114    -9.837991    30.941490    -23.690670    -1.024129    -24.775497    38.542465    0.000000    0.000000    0.000000    -9.992948    -13.494410    26.046886    8.010985    27.168913    2.554663    6.490889    -17.165947    -12.766870    0.000000    0.000000    0.000000    
6.845924    155.425278    -99.978378    2.878765    -6.040051    49.593258    -2.667996    1.918290    -2.757953    -3.359971    4.007619    -0.816286    5.199727    4.650023    -17.225431    12.742866    0.655451    -16.809269    6.207144    8.695127    -19.397232    -26.080961    23.275518    -58.333584    -2.215888    -9.833158    -101.329018    10.671155    -13.405419    -10.068823    -8.659058    -1.711747    -3.627601    24.008783    -24.451771    52.019249    -19.359793    -12.754534    63.602081    -3.068871    -1.753556    38.022423    18.206345    -4.796778    -10.331100    -9.823401    30.972675    -23.738153    -1.055738    -24.812607    38.481525    0.000000    0.000000    0.000000    -9.984113    -13.510842    26.061598    8.042493    27.244946    2.606001    6.711015    -16.994682    -12.906865    0.000000    0.000000    0.000000    
6.821796    155.390244    -99.887642    2.897041    -6.029611    49.662437    -2.682508    1.928853    -2.728163    -3.340013    3.974452    -0.808240    5.165842    4.676123    -17.245899    12.735320    0.659163    -16.827265    6.172338    8.714193    -19.390633    -26.085638    23.286598    -58.297405    -2.243872    -9.788662    -101.355408    10.647848    -13.395933    -10.087163    -8.678210    -1.671823    -3.630258    24.003422    -24.479742    52.037037    -19.339287    -12.767573    63.581974    -3.011988    -1.764138    37.985600    18.223980    -4.813039    -10.310579    -9.804770    30.999626    -23.755552    -1.087446    -24.832277    38.411545    0.000000    0.000000    0.000000    -9.995154    -13.546972    26.088032    8.117473    27.327209    2.625992    6.827940    -16.721630    -13.189368    0.000000    0.000000    0.000000    
6.799293    155.350128    -99.800339    2.912659    -6.012964    49.724838    -2.685498    1.919326    -2.699352    -3.358228    3.963492    -0.798250    5.203096    4.681647    -17.248451    12.659156    0.658513    -16.843651    6.173832    8.728804    -19.377052    -26.107452    23.264849    -58.271339    -2.280018    -9.707233    -101.366180    10.636744    -13.364524    -10.157625    -8.681389    -1.642411    -3.641583    24.027029    -24.521503    52.077713    -19.311695    -12.736601    63.547813    -3.042952    -1.769923    38.016457    18.235052    -4.842135    -10.294569    -9.830729    31.039362    -23.674274    -1.090361    -24.841648    38.334305    0.000000    0.000000    0.000000    -10.013529    -13.593924    26.027647    8.155908    27.414270    2.662568    6.952722    -16.468040    -13.468214    0.000000    0.000000    0.000000    
6.775080    155.307877    -99.710083    2.932385    -6.002502    49.791794    -2.673058    1.925917    -2.664551    -3.391338    3.949304    -0.785930    5.220171    4.687570    -17.259033    12.623620    0.647798    -16.859818    6.180154    8.730508    -19.372341    -26.119289    23.227600    -58.252182    -2.456109    -9.524431    -101.398979    10.969412    -13.426250    -10.178352    -8.687499    -1.646326    -3.655905    24.011366    -24.527967    52.071220    -19.304277    -12.720208    63.523296    -3.029462    -1.757189    37.955959    18.248117    -4.870043    -10.303135    -9.772013    31.116852    -23.813183    -1.132945    -24.919052    38.317894    0.000000    0.000000    0.000000    -10.031834    -13.640940    25.976765    8.205772    27.504366    2.593343    7.060429    -16.197666    -13.624711    0.000000    0.000000    0.000000    
